<svg xmlns="http://www.w3.org/2000/svg" id="Logo" width="94.959" height="81.124"><defs><style>.cls-1{fill:#fff}</style></defs><g id="Group_113" data-name="Group 113" transform="translate(10.937)"><path id="Path_263" d="M250.913 512.112h-3.525v-49.356H183.93v49.356h-3.524v-52.88h70.507z" class="cls-1" data-name="Path 263" transform="translate(-180.406 -459.232)"/></g><g id="Group_114" data-name="Group 114" transform="translate(10.937 77.51)"><path id="Rectangle_83" d="M0 0h70.507v3.614H0z" class="cls-1" data-name="Rectangle 83"/></g><g id="Group_115" data-name="Group 115" transform="translate(32.821 20.18)"><path id="Path_264" d="M258.445 523.972l5.521 17.209 5.5-17.209h7.849v24.735h-5.98v-5.776l.577-11.825-5.98 17.6H262l-6-17.617.578 11.841v5.776h-5.963v-24.734z" class="cls-1" data-name="Path 264" transform="translate(-250.613 -523.972)"/></g><g id="Group_116" data-name="Group 116" transform="translate(0 55.207)"><path id="Path_265" d="M148.9 652.39l.127 1.439a4.209 4.209 0 013.5-1.667 3.1 3.1 0 013.14 1.848 4.08 4.08 0 013.6-1.848q3.725 0 3.83 4.51v7.982h-3.83v-7.741a2.357 2.357 0 00-.315-1.373 1.359 1.359 0 00-1.159-.43 1.807 1.807 0 00-1.689 1.008l.012.156v8.379h-3.826v-7.718a2.459 2.459 0 00-.305-1.4 1.351 1.351 0 00-1.168-.43 1.826 1.826 0 00-1.677 1.008v8.536h-3.821V652.39z" class="cls-1" data-name="Path 265" transform="translate(-145.319 -647.231)"/><path id="Path_266" d="M216.541 653.415a3.938 3.938 0 01-3.276 1.553 3.863 3.863 0 01-3.054-1.172 4.942 4.942 0 01-1.036-3.373v-7.944h3.818v7.967a1.372 1.372 0 001.532 1.575 2 2 0 001.87-.938v-8.6h3.843v12.263h-3.584zm-6.519-14.145a1.387 1.387 0 01.494-1.066 1.9 1.9 0 012.438 0 1.4 1.4 0 010 2.131 1.9 1.9 0 01-2.438 0 1.385 1.385 0 01-.494-1.064zm5.883 0a1.383 1.383 0 01.493-1.066 1.9 1.9 0 012.436 0 1.4 1.4 0 010 2.131 1.9 1.9 0 01-2.436 0 1.381 1.381 0 01-.493-1.064z" class="cls-1" data-name="Path 266" transform="translate(-189.27 -637.32)"/><path id="Path_267" d="M255.836 653.793H252v-17.41h3.832z" class="cls-1" data-name="Path 267" transform="translate(-218.749 -636.371)"/><path id="Path_268" d="M276.831 649.2l-1.078 1.08v3.49h-3.82v-17.427h3.82v9.249l.386-.509 2.877-3.581h4.58l-4.3 5.043 4.58 7.22h-4.373z" class="cls-1" data-name="Path 268" transform="translate(-232.466 -636.343)"/><path id="Path_269" d="M316.939 664.879a6.3 6.3 0 01-4.568-1.683 5.812 5.812 0 01-1.746-4.381v-.315a7.544 7.544 0 01.7-3.323 5.126 5.126 0 012.034-2.225 6.147 6.147 0 013.174-.788 5.313 5.313 0 014.082 1.6 6.307 6.307 0 011.5 4.469v1.487h-7.594a2.735 2.735 0 00.895 1.62 2.663 2.663 0 001.789.589 3.433 3.433 0 002.836-1.268l1.744 2.064a4.87 4.87 0 01-2.021 1.569 6.855 6.855 0 01-2.825.585zm-.433-9.77q-1.678 0-1.994 2.222h3.853v-.293a1.9 1.9 0 00-.463-1.425 1.855 1.855 0 00-1.396-.504z" class="cls-1" data-name="Path 269" transform="translate(-259.098 -647.231)"/><path id="Path_270" d="M350.845 647.57a7.5 7.5 0 011.255-4.589 4.148 4.148 0 013.514-1.679 3.526 3.526 0 012.767 1.292v-6.21h3.83v17.409h-3.433l-.193-1.316a3.61 3.61 0 01-2.994 1.542 4.135 4.135 0 01-3.467-1.676 7.725 7.725 0 01-1.279-4.773zm3.818.238q0 3.265 1.9 3.263a1.879 1.879 0 001.814-1.064v-4.671a1.83 1.83 0 00-1.791-1.088q-1.768 0-1.917 2.857z" class="cls-1" data-name="Path 270" transform="translate(-286.781 -636.371)"/><path id="Path_271" d="M394.185 638.637a1.7 1.7 0 01.589-1.336 2.507 2.507 0 013.061 0 1.814 1.814 0 010 2.676 2.509 2.509 0 01-3.061 0 1.7 1.7 0 01-.589-1.34z" class="cls-1" data-name="Path 271" transform="translate(-316.612 -636.644)"/><path id="Rectangle_84" d="M0 0h3.832v12.263H0z" class="cls-1" data-name="Rectangle 84" transform="translate(77.801 5.159)"/><path id="Path_272" d="M418.091 652.39l.124 1.439a4.161 4.161 0 013.5-1.667 3.5 3.5 0 012.862 1.144 5.458 5.458 0 01.98 3.447v7.9h-3.831v-7.741a2.058 2.058 0 00-.373-1.367 1.728 1.728 0 00-1.359-.436 1.817 1.817 0 00-1.666.886v8.658h-3.818V652.39z" class="cls-1" data-name="Path 272" transform="translate(-330.601 -647.231)"/></g></svg>