<svg xmlns="http://www.w3.org/2000/svg" width="23.531" height="23.531"><g data-name="001-phone"><path fill="#1c2040" d="M16.912 23.531a6.556 6.556 0 01-2.249-.4 23.984 23.984 0 01-8.709-5.551A23.983 23.983 0 01.4 8.869a6.509 6.509 0 01-.332-3.2A6.674 6.674 0 013.5.784 6.552 6.552 0 016.638 0a.735.735 0 01.719.581l1.154 5.386a.736.736 0 01-.2.674L6.34 8.614a19.356 19.356 0 008.578 8.578l1.972-1.972a.736.736 0 01.674-.2l5.386 1.154a.735.735 0 01.581.719 6.552 6.552 0 01-.784 3.137 6.674 6.674 0 01-4.886 3.43 6.541 6.541 0 01-.95.07zM6.05 1.5a5.153 5.153 0 00-4.265 6.867 22.3 22.3 0 0013.38 13.38 5.153 5.153 0 006.864-4.266l-4.382-.939-2.06 2.06a.735.735 0 01-.833.146 20.821 20.821 0 01-9.97-9.971.735.735 0 01.146-.833l2.06-2.06z" data-name="Path 246"/></g></svg>