<svg xmlns="http://www.w3.org/2000/svg" id="_002-pin" width="17.385" height="23.531" data-name="002-pin"><defs><style>.cls-1{fill:#1c2040}</style></defs><g id="Group_96" data-name="Group 96"><g id="Group_95" data-name="Group 95"><path id="Path_247" d="M56.773 0a8.7 8.7 0 00-8.693 8.693 10.029 10.029 0 00.737 3.347 14.018 14.018 0 001 1.879l5.96 9.031a1.134 1.134 0 001.981 0l5.961-9.031a13.959 13.959 0 001-1.879 10.026 10.026 0 00.737-3.347A8.7 8.7 0 0056.773 0zm7.013 11.642a12.844 12.844 0 01-.916 1.713l-5.961 9.031c-.118.178-.155.178-.273 0l-5.961-9.031a12.851 12.851 0 01-.916-1.713 9.1 9.1 0 01-.659-2.949 7.67 7.67 0 1115.34 0 9.111 9.111 0 01-.655 2.949z" class="cls-1" data-name="Path 247" transform="translate(-48.08)"/><path id="Path_248" d="M116.682 64.008a4.6 4.6 0 104.6 4.6 4.607 4.607 0 00-4.6-4.6zm0 8.181a3.579 3.579 0 113.579-3.579 3.584 3.584 0 01-3.579 3.579z" class="cls-1" data-name="Path 248" transform="translate(-107.989 -59.917)"/></g></g></svg>