<svg xmlns="http://www.w3.org/2000/svg" id="_003-email" width="26.94" height="23.531" data-name="003-email"><defs><style>.cls-1{fill:#1c2040}</style></defs><g id="Group_98" data-name="Group 98"><g id="Group_97" data-name="Group 97"><path id="Path_249" d="M26.813 36.311l-3.9-2.756V29.53a.867.867 0 00-.743-.774H5.078a.867.867 0 00-.743.774v3.994L.279 36.311a.681.681 0 00-.279.5v14.702a.9.9 0 00.774.774h25.7c.341 0 .464-.4.464-.774V36.806c-.001-.186.03-.371-.125-.495zm-3.9-1.269l2.663 1.827-2.663 2.013zm-17.34-5.048h16.1v9.846l-8.05 6.069-8.05-6.069v-9.846zM4.335 35.01v3.9l-2.663-2.042zm-3.1 3.127L9.908 44.7l-8.67 5.853zm1.49 12.912l8.236-5.542 2.2 1.672a.743.743 0 00.433.155c.124 0 .186-.062.31-.155l2.291-1.765 8.329 5.635zm22.975-.712l-8.484-5.7 8.484-6.5z" class="cls-1" data-name="Path 249" transform="translate(0 -28.756)"/><path id="Path_250" d="M136.456 97.912h2.787a.619.619 0 000-1.239h-2.787a.619.619 0 000 1.239z" class="cls-1" data-name="Path 250" transform="translate(-127.787 -92.649)"/><path id="Path_251" d="M136.456 144.933h9.908a.619.619 0 000-1.238h-9.908a.619.619 0 100 1.238z" class="cls-1" data-name="Path 251" transform="translate(-127.787 -136.883)"/><path id="Path_252" d="M146.983 191.334a.619.619 0 00-.619-.619h-9.908a.619.619 0 000 1.239h9.908a.619.619 0 00.619-.62z" class="cls-1" data-name="Path 252" transform="translate(-127.787 -181.117)"/></g></g></svg>